# xmcd CD database file
#
# Track frame offsets:
#	150
#	19541
#	37515
#	52163
#	60722
#	66006
#	89683
#	114293
#	123257
#	144686
#	156749
#	174507
#	196761
#	225880
#	229569
#	245398
#
# Disc length: 3421 seconds
#
# Revision: 0
# Processed by: cddbd v1.5PL3 Copyright (c) Steve Scherf et al.
# Submitted via: CDex 1.51
#
DISCID=ca0d5b10
DTITLE=Bamm Davis - Short Stories
DYEAR=2003
DGENRE=Jazz
TTITLE0=Bamm Davis - Short Stories - 01 - Without Your Love
TTITLE1=Bamm Davis - Short Stories - 02 - DPlaya
TTITLE2=Bamm Davis - Short Stories - 03 - You And Me - featuring Cello
TTITLE3=Bamm Davis - Short Stories - 04 - Me And You
TTITLE4=Bamm Davis - Short Stories - 05 - Before
TTITLE5=Bamm Davis - Short Stories - 06 - This Time - featuring Michelle Shaw and Lex
TTITLE6=Bamm Davis - Short Stories - 07 - Ole' Story
TTITLE7=Bamm Davis - Short Stories - 08 - In The Beginning
TTITLE8=Bamm Davis - Short Stories - 09 - Your Eyes
TTITLE9=Bamm Davis - Short Stories - 10 - Close Your Eyes
TTITLE10=Bamm Davis - Short Stories - 11 - We Must Talk
TTITLE11=Bamm Davis - Short Stories - 12 - The Resurrection
TTITLE12=Bamm Davis - Short Stories - 13 - At Peace
TTITLE13=Bamm Davis - Short Stories - 14 - Bonus Tracks - Thriller Intro
TTITLE14=Bamm Davis - Short Stories - 15 - Thriller
TTITLE15=Bamm Davis - Short Stories - 16 - Chiller Thriller Groove
EXTD=YEAR: 2003
EXTT0=
EXTT1=
EXTT2=
EXTT3=
EXTT4=
EXTT5=
EXTT6=
EXTT7=
EXTT8=
EXTT9=
EXTT10=
EXTT11=
EXTT12=
EXTT13=
EXTT14=
EXTT15=
PLAYORDER=
